<svg id="svg" width="400" height="400" xmlns="http://www.w3.org/2000/svg">
    <desc>Created with Snap</desc>
    <defs></defs>
    <circle cx="200" cy="200" r="200" fill="#aaaaff" style=""></circle>
    <g>
        <g stroke="#ffffff" fill="none" style="stroke-width: 20px; stroke-linecap: round;">
            <path d="M180 166 A26,26 0 0,0 180 114"></path>
            <path d="M180 114 A52,52 0 0,0 180 218"></path>
            <path d="M180 218 A78,78 0 0,0 180 62"></path>
            <path d="M180 62 A104,104 0 0,0 180 270"></path>
        </g>
        <g stroke="#ffffff" fill="none" style="stroke-width: 20px; stroke-linecap: round;">
            <path d="M290 280 A20,20 0 0,0 250 280"></path>
            <path d="M250 280 A40,40 0 0,0 330 280"></path>
            <path d="M330 280 A60,60 0 0,0 210 280"></path>
        </g>
    </g>
</svg>
